<?xml version="1.0" encoding="utf-8"?>
<!-- Generator: Adobe Illustrator 23.1.1, SVG Export Plug-In . SVG Version: 6.00 Build 0)  -->
<svg version="1.1" id="Capa_2" xmlns="http://www.w3.org/2000/svg" xmlns:xlink="http://www.w3.org/1999/xlink" x="0px" y="0px"
	 viewBox="0 0 841.9 595.3" style="enable-background:new 0 0 841.9 595.3;" xml:space="preserve">
<style type="text/css">
	.st0{fill:url(#SVGID_1_);}
	.st1{fill:url(#SVGID_2_);}
	.st2{fill:url(#SVGID_3_);}
	.st3{fill:url(#SVGID_4_);}
	.st4{fill:url(#SVGID_5_);}
	.st5{fill:url(#SVGID_6_);}
	.st6{fill:url(#SVGID_7_);}
	.st7{fill:url(#SVGID_8_);}
</style>
<linearGradient id="SVGID_1_" gradientUnits="userSpaceOnUse" x1="541.3331" y1="316.7283" x2="554.7024" y2="242.4408">
	<stop  offset="1.829368e-02" style="stop-color:#61F5FF"/>
	<stop  offset="0.9978" style="stop-color:#8EBCFE"/>
</linearGradient>
<polygon class="st0" points="589.7,247.7 575.1,330.2 513.7,269.7 "/>
<linearGradient id="SVGID_2_" gradientUnits="userSpaceOnUse" x1="514.7267" y1="292.1408" x2="543.4094" y2="340.09">
	<stop  offset="1.829368e-02" style="stop-color:#61F5FF"/>
	<stop  offset="0.9978" style="stop-color:#8EBCFE"/>
</linearGradient>
<polygon class="st1" points="499.9,330.2 575.1,330.2 513.7,269.7 "/>
<linearGradient id="SVGID_3_" gradientUnits="userSpaceOnUse" x1="515.6603" y1="310.8585" x2="475.5815" y2="270.9699">
	<stop  offset="1.925900e-02" style="stop-color:#DD7BA3"/>
	<stop  offset="0.9988" style="stop-color:#EEB0B6"/>
</linearGradient>
<polygon class="st2" points="477.3,268.3 495.7,330.2 499.9,330.2 513.7,269.7 "/>
<linearGradient id="SVGID_4_" gradientUnits="userSpaceOnUse" x1="497.3371" y1="266.318" x2="527.7393" y2="222.5914">
	<stop  offset="1.207576e-02" style="stop-color:#EE9E9C"/>
	<stop  offset="0.9978" style="stop-color:#EFB5B3"/>
</linearGradient>
<polygon class="st3" points="527.6,217.3 477.3,268.3 513.7,269.7 "/>
<linearGradient id="SVGID_5_" gradientUnits="userSpaceOnUse" x1="567.7968" y1="246.8463" x2="519.2852" y2="243.4075">
	<stop  offset="8.492390e-03" style="stop-color:#D378A0"/>
	<stop  offset="0.9998" style="stop-color:#8F70AA"/>
</linearGradient>
<polygon class="st4" points="589.7,247.7 527.6,217.3 513.7,269.7 "/>
<linearGradient id="SVGID_6_" gradientUnits="userSpaceOnUse" x1="542.7783" y1="225.7041" x2="587.301" y2="244.1302">
	<stop  offset="0" style="stop-color:#C1A6B0"/>
	<stop  offset="1" style="stop-color:#B8BDC0"/>
</linearGradient>
<polygon class="st5" points="580.3,238.6 527.6,217.3 589.7,247.7 "/>
<linearGradient id="SVGID_7_" gradientUnits="userSpaceOnUse" x1="590.6821" y1="325.6095" x2="604.0513" y2="251.3219">
	<stop  offset="1.829343e-02" style="stop-color:#4697FD"/>
	<stop  offset="1" style="stop-color:#C9AFD1"/>
</linearGradient>
<polygon class="st6" points="610.3,299.9 589.7,247.7 575.1,330.2 "/>
<linearGradient id="SVGID_8_" gradientUnits="userSpaceOnUse" x1="590.0499" y1="329.7055" x2="595.8004" y2="297.7527">
	<stop  offset="1.829343e-02" style="stop-color:#4697FD"/>
	<stop  offset="1" style="stop-color:#C9AFD1"/>
</linearGradient>
<polygon class="st7" points="579.9,330.2 610.3,299.9 575.1,330.2 "/>
</svg>
